<svg width="19" height="19" viewBox="0 0 19 19" fill="none" xmlns="http://www.w3.org/2000/svg">
<path d="M8.08329 16C9.85238 16 11.4787 15.365 12.7763 14.312L16.9891 18.708L18.3442 17.294L14.1313 12.898C15.1414 11.543 15.75 9.846 15.75 8C15.75 3.589 12.3105 0 8.08329 0C3.85608 0 0.416626 3.589 0.416626 8C0.416626 12.411 3.85608 16 8.08329 16ZM8.08329 2C11.2544 2 13.8333 4.691 13.8333 8C13.8333 11.309 11.2544 14 8.08329 14C4.91217 14 2.33329 11.309 2.33329 8C2.33329 4.691 4.91217 2 8.08329 2Z" fill="white"/>
</svg>
